<svg xmlns="http://www.w3.org/2000/svg" xmlns:xlink="http://www.w3.org/1999/xlink" width="500" zoomAndPan="magnify" viewBox="0 0 375 374.999991" height="500" preserveAspectRatio="xMidYMid meet" version="1.0"><defs><clipPath id="b01a89611b"><path d="M 0 0 L 374.796875 0 L 374.796875 374.796875 L 0 374.796875 Z M 0 0 " clip-rule="nonzero"/></clipPath><clipPath id="812c953826"><path d="M 187.398438 0 C 83.902344 0 0 83.902344 0 187.398438 C 0 290.894531 83.902344 374.796875 187.398438 374.796875 C 290.894531 374.796875 374.796875 290.894531 374.796875 187.398438 C 374.796875 83.902344 290.894531 0 187.398438 0 " clip-rule="nonzero"/></clipPath></defs><g clip-path="url(#b01a89611b)"><g clip-path="url(#812c953826)"><path stroke-linecap="butt" transform="matrix(1.02072, 0, 0, 1.02072, 0.0000045, -0.000000000000007709)" fill="none" stroke-linejoin="miter" d="M 183.594297 0.000000000000007553 C 82.199145 0.000000000000007553 -0.00000440865 82.199149 -0.00000440865 183.594301 C -0.00000440865 284.989453 82.199145 367.188602 183.594297 367.188602 C 284.989448 367.188602 367.188598 284.989453 367.188598 183.594301 C 367.188598 82.199149 284.989448 0.000000000000007553 183.594297 0.000000000000007553 " stroke="#000000" stroke-width="41.1264" stroke-opacity="1" stroke-miterlimit="4"/></g></g><path stroke-linecap="butt" transform="matrix(0.478888, -0.901942, 0.901986, 0.478912, 35.474233, 294.725724)" fill="none" stroke-linejoin="miter" d="M -0.000508857 15.498175 L 325.018762 15.498677 " stroke="#000000" stroke-width="31" stroke-opacity="1" stroke-miterlimit="4"/><path stroke-linecap="butt" transform="matrix(-0.511414, -0.885796, 0.884421, -0.510621, 301.362904, 320.234305)" fill="none" stroke-linejoin="miter" d="M 0.0000132087 15.498739 L 281.574373 15.500024 " stroke="#000000" stroke-width="31" stroke-opacity="1" stroke-miterlimit="4"/><path stroke-linecap="butt" transform="matrix(-0.441634, 0.922437, -0.921115, -0.441001, 320.588979, 62.439377)" fill="none" stroke-linejoin="miter" d="M 0.00107672 15.49861 L 337.527953 15.497745 " stroke="#000000" stroke-width="31" stroke-opacity="1" stroke-miterlimit="4"/><path stroke-linecap="butt" transform="matrix(-1.020535, -0.000000000000000125, 0.000000000000000125, -1.021242, 262.154284, 207.295328)" fill="none" stroke-linejoin="miter" d="M 0.00190129 15.50121 L 158.11822 15.50121 " stroke="#000000" stroke-width="31" stroke-opacity="1" stroke-miterlimit="4"/></svg>