<svg xmlns="http://www.w3.org/2000/svg" xmlns:xlink="http://www.w3.org/1999/xlink" width="500" zoomAndPan="magnify" viewBox="0 0 375 374.999991" height="500" preserveAspectRatio="xMidYMid meet" version="1.0"><defs><clipPath id="33de8bb83e"><path d="M 62.101562 42.738281 L 337.351562 42.738281 L 337.351562 317.988281 L 62.101562 317.988281 Z M 62.101562 42.738281 " clip-rule="nonzero"/></clipPath><clipPath id="bef8db266f"><path d="M 199.726562 42.738281 C 123.71875 42.738281 62.101562 104.351562 62.101562 180.363281 C 62.101562 256.371094 123.71875 317.988281 199.726562 317.988281 C 275.734375 317.988281 337.351562 256.371094 337.351562 180.363281 C 337.351562 104.351562 275.734375 42.738281 199.726562 42.738281 " clip-rule="nonzero"/></clipPath><clipPath id="c1c325ecd0"><path d="M 54.519531 48.789062 L 329.769531 48.789062 L 329.769531 324.039062 L 54.519531 324.039062 Z M 54.519531 48.789062 " clip-rule="nonzero"/></clipPath><clipPath id="34d07abb92"><path d="M 192.144531 48.789062 C 116.136719 48.789062 54.519531 110.40625 54.519531 186.414062 C 54.519531 262.425781 116.136719 324.039062 192.144531 324.039062 C 268.152344 324.039062 329.769531 262.425781 329.769531 186.414062 C 329.769531 110.40625 268.152344 48.789062 192.144531 48.789062 " clip-rule="nonzero"/></clipPath></defs><g clip-path="url(#33de8bb83e)"><g clip-path="url(#bef8db266f)"><path stroke-linecap="butt" transform="matrix(0.749617, 0, 0, 0.749617, 62.1, 42.736425)" fill="none" stroke-linejoin="miter" d="M 183.595843 0.00247601 C 82.200312 0.00247601 0.00208383 82.195493 0.00208383 183.596235 C 0.00208383 284.991767 82.200312 367.189995 183.595843 367.189995 C 284.991375 367.189995 367.189603 284.991767 367.189603 183.596235 C 367.189603 82.195493 284.991375 0.00247601 183.595843 0.00247601 " stroke="#000000" stroke-width="56" stroke-opacity="1" stroke-miterlimit="4"/></g></g><path stroke-linecap="butt" transform="matrix(0.351696, -0.662387, 0.662418, 0.351713, 88.152275, 259.182991)" fill="none" stroke-linejoin="miter" d="M 0.000910142 15.496812 L 325.016806 15.499674 " stroke="#000000" stroke-width="31" stroke-opacity="1" stroke-miterlimit="4"/><path stroke-linecap="butt" transform="matrix(-0.375583, -0.650528, 0.649519, -0.375, 283.420942, 277.916495)" fill="none" stroke-linejoin="miter" d="M -0.00156274 15.498781 L 281.576731 15.501885 " stroke="#000000" stroke-width="31" stroke-opacity="1" stroke-miterlimit="4"/><path stroke-linecap="butt" transform="matrix(-0.324336, 0.677438, -0.676467, -0.323871, 297.540542, 88.591897)" fill="none" stroke-linejoin="miter" d="M -0.00154559 15.501655 L 337.529043 15.500723 " stroke="#000000" stroke-width="31" stroke-opacity="1" stroke-miterlimit="4"/><path stroke-linecap="butt" transform="matrix(-0.749481, -0.000000000000000092, 0.000000000000000092, -0.75, 254.626101, 194.974118)" fill="none" stroke-linejoin="miter" d="M 0.00146952 15.501949 L 158.116063 15.501949 " stroke="#000000" stroke-width="31" stroke-opacity="1" stroke-miterlimit="4"/><g clip-path="url(#c1c325ecd0)"><g clip-path="url(#34d07abb92)"><path stroke-linecap="butt" transform="matrix(0.749617, 0, 0, 0.749617, 54.520405, 48.790914)" fill="none" stroke-linejoin="miter" d="M 183.592594 -0.00247046 C 82.197062 -0.00247046 -0.00116549 82.195757 -0.00116549 183.591289 C -0.00116549 284.992032 82.197062 367.185048 183.592594 367.185048 C 284.988126 367.185048 367.186353 284.992032 367.186353 183.591289 C 367.186353 82.195757 284.988126 -0.00247046 183.592594 -0.00247046 " stroke="#ffde59" stroke-width="56" stroke-opacity="1" stroke-miterlimit="4"/></g></g><path stroke-linecap="butt" transform="matrix(0.351696, -0.662387, 0.662418, 0.351713, 80.572674, 265.237511)" fill="none" stroke-linejoin="miter" d="M 0.00163585 15.498654 L 325.017532 15.501516 " stroke="#ffde59" stroke-width="31" stroke-opacity="1" stroke-miterlimit="4"/><path stroke-linecap="butt" transform="matrix(-0.375583, -0.650528, 0.649519, -0.375, 275.841315, 283.970986)" fill="none" stroke-linejoin="miter" d="M -0.00278818 15.500384 L 281.578105 15.498977 " stroke="#ffde59" stroke-width="31" stroke-opacity="1" stroke-miterlimit="4"/><path stroke-linecap="butt" transform="matrix(-0.324336, 0.677438, -0.676467, -0.323871, 289.960941, 94.646391)" fill="none" stroke-linejoin="miter" d="M -0.00216144 15.499769 L 337.528427 15.498837 " stroke="#ffde59" stroke-width="31" stroke-opacity="1" stroke-miterlimit="4"/><path stroke-linecap="butt" transform="matrix(-0.749481, -0.000000000000000092, 0.000000000000000092, -0.75, 247.046501, 201.028624)" fill="none" stroke-linejoin="miter" d="M -0.000498909 15.501707 L 158.119307 15.501707 " stroke="#ffde59" stroke-width="31" stroke-opacity="1" stroke-miterlimit="4"/></svg>